# xmcd
#
# Track frame offsets:
# 150
# 16358
# 36214
# 53366
# 73274
# 87806
# 101476
#
# Disc length: 1599 seconds
#
# Revision: 1
# Processed by: cddbd v1.5.2PL0 Copyright (c) Steve Scherf et al.
# Submitted via: CedeCatalogueitor 2.6.0.6 http://personales.ya.com/cdcatalogueitor
#
DISCID=4f063d07
DTITLE=La Habitación Roja - Esta No Sera Otra Canción De Amor
DYEAR=1900
DGENRE=
TTITLE0=Esta No Será Otra Canción De Amor
TTITLE1=Los Ciclos De La Vida
TTITLE2=Campos Magneticos
TTITLE3=Entrepinos
TTITLE4=Si Amenazas Tormentas
TTITLE5=Hasta El Infinito
TTITLE6=Angel De La Guarda
EXTD=
EXTT0=
EXTT1=
EXTT2=
EXTT3=
EXTT4=
EXTT5=
EXTT6=
PLAYORDER=
